<svg width="33" height="33" viewBox="0 0 33 33" fill="none" xmlns="http://www.w3.org/2000/svg">
<path d="M6.14138 4.37251H1.33988C0.782178 4.37251 0.330078 3.92041 0.330078 3.36271C0.330078 2.80501 0.782178 2.35291 1.33988 2.35291H6.14138C6.69908 2.35291 7.15118 2.80501 7.15118 3.36271C7.15118 3.92041 6.69908 4.37251 6.14138 4.37251ZM27.8686 25.5948H11.4478C10.8901 25.5948 10.438 25.1427 10.438 24.585C10.438 24.0273 10.8901 23.5752 11.4478 23.5752H27.8719C28.4296 23.5752 28.8817 24.0273 28.8817 24.585C28.8817 25.1427 28.4263 25.5948 27.8686 25.5948ZM31.6603 8.41501H7.65608C7.09838 8.41501 6.64628 7.96291 6.64628 7.40521C6.64628 6.84751 7.09838 6.39541 7.65608 6.39541H31.657C32.2147 6.39541 32.6668 6.84751 32.6668 7.40521C32.6701 7.96291 32.218 8.41501 31.6603 8.41501ZM30.0796 14.4804H9.23678C8.67908 14.4804 8.22698 14.0283 8.22698 13.4706C8.22698 12.9129 8.67908 12.4608 9.23678 12.4608H30.0796C30.6373 12.4608 31.0894 12.9129 31.0894 13.4706C31.0894 14.025 30.6373 14.4804 30.0796 14.4804ZM28.6276 20.5425H10.8142C10.2565 20.5425 9.80438 20.0904 9.80438 19.5327C9.80438 18.975 10.2565 18.5229 10.8142 18.5229H28.6276C29.1853 18.5229 29.6374 18.975 29.6374 19.5327C29.6374 20.0904 29.1853 20.5425 28.6276 20.5425ZM19.4041 20.4171C18.8464 20.4171 18.3943 19.965 18.3943 19.4073V8.54041C18.3943 7.98271 18.8464 7.53061 19.4041 7.53061C19.9618 7.53061 20.4139 7.98271 20.4139 8.54041V19.404C20.4172 19.965 19.9651 20.4171 19.4041 20.4171ZM26.3605 7.81441L25.0669 18.6021C25.0009 19.1565 24.496 19.5525 23.9416 19.4865C23.3872 19.4205 22.9912 18.9156 23.0572 18.3645L24.3541 7.57681C24.4201 7.02241 24.925 6.62641 25.4794 6.69241C26.0338 6.75841 26.4265 7.26331 26.3605 7.81441ZM32.614 7.67581L29.7001 19.4238C29.5681 19.965 29.0203 20.2983 28.4758 20.163C27.9346 20.031 27.6013 19.4832 27.7366 18.9387L30.6505 7.19071C30.7825 6.64951 31.3303 6.31621 31.8748 6.45151C32.416 6.58681 32.746 7.13461 32.614 7.67581ZM14.8996 19.6416C14.3452 19.7142 13.8403 19.3215 13.7677 18.7671L12.4675 8.61631C12.3949 8.06191 12.7876 7.55701 13.342 7.48441C13.8964 7.41181 14.4013 7.80451 14.4739 8.35891L15.7741 18.5097C15.8434 19.0641 15.454 19.569 14.8996 19.6416ZM11.6359 25.3572C11.0914 25.4925 10.5436 25.1625 10.4083 24.6213L5.21408 3.81151C5.07878 3.27031 5.40878 2.72251 5.95328 2.58721C6.49778 2.45191 7.04558 2.78191 7.18088 3.32311L12.3718 24.1329C12.5071 24.6741 12.1771 25.2252 11.6359 25.3572ZM13.2166 30.6471C12.1012 30.6471 11.197 29.7429 11.197 28.6275C11.197 27.5121 12.1012 26.6046 13.2166 26.6046C14.332 26.6046 15.2362 27.5088 15.2362 28.6275C15.2362 29.7429 14.332 30.6471 13.2166 30.6471ZM25.5949 30.6471C24.4795 30.6471 23.5753 29.7429 23.5753 28.6275C23.5753 27.5121 24.4795 26.6046 25.5949 26.6046C26.7103 26.6046 27.6178 27.5088 27.6178 28.6275C27.6178 29.7429 26.7103 30.6471 25.5949 30.6471Z" fill="white"/>
</svg>
