<svg width="51" height="50" viewBox="0 0 51 50" fill="none" xmlns="http://www.w3.org/2000/svg">
<rect width="50.0451" height="50" fill="#4CAF50"/>
<path d="M40.7906 16.2493L31.6991 25.3407L40.5663 34.2144C40.8348 33.7528 41 33.2238 41 32.6524V17.3477C41 16.9598 40.9201 16.5923 40.7906 16.2493Z" fill="white"/>
<path d="M37.8696 14.2173H12.1304C11.61 14.2173 11.1263 14.357 10.6941 14.5827L24.36 28.2485C24.7565 28.645 25.4452 28.645 25.8347 28.2485L39.4364 14.6535C38.9737 14.3833 38.443 14.2173 37.8696 14.2173Z" fill="white"/>
<path d="M9.26256 16.1006C9.09544 16.4832 9 16.904 9 17.3476V32.6523C9 33.2146 9.16081 33.7352 9.42144 34.1918L18.3844 25.2224L9.26256 16.1006Z" fill="white"/>
<path d="M30.2174 26.8224L27.3165 29.7302C26.098 30.9349 24.1238 30.9546 22.8852 29.7302L19.8661 26.7041L11.0004 35.5635C11.3519 35.7005 11.731 35.7827 12.1304 35.7827H37.8696C38.2593 35.7827 38.6287 35.7024 38.9731 35.5717L30.2174 26.8224Z" fill="white"/>
</svg>
