<svg width="40" height="39" viewBox="0 0 40 39" fill="none" xmlns="http://www.w3.org/2000/svg">
<path d="M36.8382 0H3.39111C1.64017 0 0.225342 1.42151 0.225342 3.17969V34.994C0.225342 36.7468 1.64017 38.1723 3.39111 38.1723H36.8382C38.5812 38.1723 40 36.7482 40 34.994V3.17969C39.9987 1.42151 38.5798 0 36.8382 0ZM26.961 11.3333C26.1386 10.8497 25.4864 10.4676 24.6667 10.4676C23.8643 10.4676 23.1788 10.6693 22.8281 11.0087C22.4774 11.3454 22.3033 11.9973 22.3033 12.9606V14.3861H26.593L25.6644 18.3514H22.3033V31.5271H16.915V18.3514H14.4002V14.3861H16.9177V12.8724C16.9177 11.2786 17.1076 10.3246 17.4823 9.53774C17.8556 8.75351 18.5796 7.87976 19.5866 7.38544C20.5922 6.89245 22.0801 6.64395 23.6198 6.64395C25.1981 6.64395 26.4309 7.17301 27.9427 7.5992L26.961 11.3333Z" fill="black"/>
</svg>
