<svg width="39" height="40" viewBox="0 0 39 40" fill="none" xmlns="http://www.w3.org/2000/svg">
<path d="M29.1959 0.0158691H9.7732C4.39175 0.0158691 0 4.52023 0 10.0397V29.9921C0 35.4798 4.39175 39.9841 9.7732 39.9841H29.2268C34.6082 39.9841 39 35.4798 39 29.9604V10.0397C38.9691 4.52023 34.5773 0.0158691 29.1959 0.0158691ZM12.9897 32.3711H7.42268V15.8763H12.9897V32.3711ZM10.1753 13.3386C8.59794 13.3386 7.3299 12.0381 7.3299 10.4203C7.3299 8.80255 8.59794 7.50199 10.1753 7.50199C11.7526 7.50199 13.0206 8.80255 13.0206 10.4203C12.9897 12.0381 11.7217 13.3386 10.1753 13.3386ZM31.5773 32.3711H31.5464H26.9072V24.3775C26.9072 22.4425 26.6598 19.9683 24.0928 19.9683C21.4639 19.9683 21.0309 22.0619 21.0309 24.2506V32.3711H16.3918V15.8763H20.7217V18.0968H20.8454C21.5258 16.8279 23.1031 15.8446 25.5773 15.8446C30.6804 15.8446 31.5773 18.8581 31.5773 23.3307V32.3711Z" fill="black"/>
</svg>
