<svg width="40" height="40" viewBox="0 0 40 40" fill="none" xmlns="http://www.w3.org/2000/svg">
<path d="M13.157 30.8057L9.22182 29.286C9.74773 31.3988 11.6557 32.9644 13.9336 32.9644C16.6152 32.9644 18.7922 30.7904 18.7922 28.1058C18.7922 25.4273 16.6152 23.2502 13.9336 23.2502C12.9674 23.2502 12.0685 23.5346 11.3132 24.0208L15.1995 25.519C16.658 26.0847 17.3857 27.7236 16.8231 29.1821C16.2574 30.6436 14.6185 31.3744 13.157 30.8057Z" fill="#030104"/>
<path d="M28.1486 19.4587C31.4692 19.4587 34.1691 16.7588 34.1691 13.4382C34.1691 10.1176 31.4692 7.41772 28.1486 7.41772C24.8311 7.41772 22.1281 10.1176 22.1281 13.4382C22.1281 16.7557 24.8311 19.4587 28.1486 19.4587ZM28.1486 9.19727C30.4907 9.19727 32.3926 11.0991 32.3926 13.4382C32.3926 15.7773 30.4907 17.6792 28.1486 17.6792C25.8095 17.6792 23.9077 15.7773 23.9077 13.4382C23.9077 11.0991 25.8095 9.19727 28.1486 9.19727Z" fill="#030104"/>
<path d="M34.7562 0.00219727H5.24385C2.34521 0.00219727 0 2.35046 0 5.24604V19.6445L7.6288 22.592C9.10564 20.8828 11.2704 19.7882 13.6982 19.7484L18.2816 13.6331C18.2816 8.21195 22.6785 3.81813 28.0966 3.81813C33.5178 3.81813 37.9116 8.21195 37.9116 13.6331C37.9116 16.6082 36.5846 19.2745 34.4932 21.0754C32.7717 22.5523 30.5397 23.4482 28.0966 23.4482C27.8398 23.4482 27.586 23.4359 27.3353 23.4145L22.0089 27.4292C22.0211 27.5974 22.0272 27.7686 22.0272 27.9398C22.0272 32.4651 18.358 36.1404 13.8327 36.1404C9.30745 36.1404 5.63828 32.4682 5.63828 27.9398C5.63828 27.9276 5.63828 27.9092 5.63828 27.894L0 25.7169V34.7522C0 37.6478 2.34826 39.9961 5.24385 39.9961H34.7562C37.6517 39.9961 40 37.6478 40 34.7522V5.2491C40 2.35352 37.6517 0.00219727 34.7562 0.00219727Z" fill="#030104"/>
</svg>
