<svg width="39" height="40" viewBox="0 0 39 40" fill="none" xmlns="http://www.w3.org/2000/svg">
<g clip-path="url(#clip0_25186:2941)">
<path d="M38.1159 7.40497C37.5032 7.68368 36.8733 7.91891 36.2297 8.10988C36.9917 7.226 37.5727 6.186 37.9273 5.04794C38.0069 4.79284 37.9244 4.51362 37.72 4.34678C37.5158 4.17981 37.2321 4.15981 37.0073 4.29646C35.6404 5.12794 34.1657 5.72549 32.6194 6.07491C31.0618 4.51388 28.9463 3.62549 26.7593 3.62549C22.1428 3.62549 18.387 7.47749 18.387 12.2122C18.387 12.5851 18.41 12.9559 18.4555 13.3216C12.7269 12.8057 7.40117 9.91787 3.74397 5.31671C3.61364 5.15271 3.41285 5.06433 3.20728 5.08123C3.00159 5.09775 2.81678 5.21671 2.71286 5.39955C1.97111 6.70497 1.57897 8.198 1.57897 9.7171C1.57897 11.7861 2.29921 13.7492 3.57149 15.2832C3.18464 15.1457 2.80923 14.974 2.45093 14.77C2.25858 14.6602 2.02382 14.6619 1.83272 14.7743C1.6415 14.8866 1.5216 15.0934 1.51657 15.3193C1.51569 15.3574 1.51569 15.3954 1.51569 15.434C1.51569 18.5224 3.13633 21.3029 5.61409 22.8184C5.40122 22.7966 5.18848 22.765 4.97713 22.7236C4.75923 22.6808 4.53517 22.7592 4.38823 22.9296C4.24103 23.0999 4.19235 23.3374 4.26016 23.5541C5.17729 26.4909 7.53855 28.651 10.3931 29.3096C8.02554 30.8305 5.31806 31.6272 2.47584 31.6272C1.88279 31.6272 1.28634 31.5914 0.702602 31.5206C0.412618 31.4852 0.135341 31.6608 0.0365828 31.9437C-0.0621753 32.2266 0.0424957 32.5421 0.289202 32.7043C3.94048 35.1055 8.16242 36.3746 12.4983 36.3746C21.0222 36.3746 26.3545 32.2521 29.3267 28.7936C33.033 24.4812 35.1586 18.7732 35.1586 13.1334C35.1586 12.8977 35.1551 12.6598 35.148 12.4226C36.6103 11.2927 37.8692 9.92523 38.8937 8.35349C39.0493 8.11478 39.0324 7.79929 38.8521 7.57955C38.6721 7.35968 38.3721 7.28858 38.1159 7.40497Z" fill="black"/>
</g>
<defs>
<clipPath id="clip0_25186:2941">
<rect width="39" height="40" fill="white"/>
</clipPath>
</defs>
</svg>
