<svg width="41" height="40" viewBox="0 0 41 40" fill="none" xmlns="http://www.w3.org/2000/svg">
<path d="M28.7859 0H12.2141C5.47923 0 0 5.34559 0 11.9162V28.0838C0 34.6544 5.47923 40 12.2141 40H28.7859C35.5208 40 41 34.6544 41 28.0838V11.9162C40.9999 5.34559 35.5207 0 28.7859 0ZM36.8754 28.0838C36.8754 32.4425 33.2536 35.976 28.7859 35.976H12.2141C7.74644 35.976 4.1246 32.4425 4.1246 28.0838V11.9162C4.1246 7.55743 7.74644 4.024 12.2141 4.024H28.7859C33.2536 4.024 36.8754 7.55743 36.8754 11.9162V28.0838Z" fill="black"/>
<path d="M20.5 9.65454C14.6529 9.65454 9.89594 14.2955 9.89594 19.9999C9.89594 25.7043 14.6529 30.3453 20.5 30.3453C26.3471 30.3453 31.1041 25.7044 31.1041 19.9999C31.1041 14.2954 26.3471 9.65454 20.5 9.65454ZM20.5 26.3214C16.9215 26.3214 14.0205 23.4912 14.0205 20C14.0205 16.5087 16.9215 13.6785 20.5 13.6785C24.0785 13.6785 26.9795 16.5087 26.9795 20C26.9795 23.4911 24.0785 26.3214 20.5 26.3214Z" fill="black"/>
<path d="M31.1243 12.2112C32.5276 12.2112 33.6652 11.1014 33.6652 9.73232C33.6652 8.36326 32.5276 7.25342 31.1243 7.25342C29.721 7.25342 28.5834 8.36326 28.5834 9.73232C28.5834 11.1014 29.721 12.2112 31.1243 12.2112Z" fill="black"/>
</svg>
