<svg width="41" height="40" viewBox="0 0 41 40" fill="none" xmlns="http://www.w3.org/2000/svg">
<path d="M39.4019 8.34132C37.922 6.62493 35.1895 5.9248 29.9711 5.9248H11.0285C5.69067 5.9248 2.91193 6.6701 1.43751 8.49745C0 10.2791 0 12.9043 0 16.5376V23.4626C0 30.5015 1.7056 34.0753 11.0285 34.0753H29.9713C34.4966 34.0753 37.0042 33.4575 38.6265 31.9427C40.2902 30.3895 41 27.8533 41 23.4626V16.5376C41 12.706 40.8888 10.0653 39.4019 8.34132ZM26.3221 20.9562L17.7203 25.3421C17.528 25.4402 17.3177 25.4888 17.1077 25.4888C16.8699 25.4888 16.6326 25.4264 16.4225 25.3022C16.0268 25.0683 15.7851 24.6498 15.7851 24.1985V15.4547C15.7851 15.0042 16.0261 14.5861 16.421 14.352C16.8161 14.118 17.3074 14.102 17.7173 14.3097L26.3191 18.6674C26.7567 18.8891 27.0316 19.3298 27.0322 19.8107C27.0328 20.292 26.7591 20.7335 26.3221 20.9562Z" fill="black"/>
</svg>
