<svg width="51" height="50" viewBox="0 0 51 50" fill="none" xmlns="http://www.w3.org/2000/svg">
<rect width="50.0451" height="50" fill="#2196F3"/>
<path d="M28.3106 16.4765C29.7902 17.375 30.8277 18.8954 31.0166 20.6602C31.62 20.9333 32.2898 21.0903 32.9998 21.0903C35.592 21.0903 37.693 19.0555 37.693 16.5454C37.693 14.0348 35.592 12 32.9998 12C30.4324 12.0008 28.3498 13.9992 28.3106 16.4765ZM25.236 25.7831C27.8282 25.7831 29.9292 23.7479 29.9292 21.2377C29.9292 18.7275 27.8278 16.6927 25.236 16.6927C22.6442 16.6927 20.542 18.7279 20.542 21.2381C20.542 23.7482 22.6442 25.7831 25.236 25.7831ZM27.2268 26.0929H23.2445C19.931 26.0929 17.2354 28.704 17.2354 31.913V36.6297L17.2478 36.7036L17.5833 36.8053C20.7453 37.7622 23.4924 38.0813 25.7536 38.0813C30.17 38.0813 32.7298 36.8618 32.8876 36.784L33.2011 36.6305H33.2346V31.913C33.2358 28.704 30.5402 26.0929 27.2268 26.0929ZM34.9914 21.4005H31.0398C30.9971 22.9318 30.3222 24.3106 29.2547 25.3023C32.1999 26.1505 34.3548 28.7956 34.3548 31.92V33.3735C38.2565 33.235 40.5048 32.164 40.653 32.0921L40.9665 31.9382H41V27.2199C41 24.0112 38.3044 21.4005 34.9914 21.4005ZM17.001 21.0911C17.9191 21.0911 18.7733 20.8316 19.4969 20.3895C19.727 18.9364 20.5313 17.6666 21.6802 16.8018C21.685 16.7167 21.6934 16.6324 21.6934 16.5465C21.6934 14.036 19.592 12.0012 17.001 12.0012C14.4084 12.0012 12.3078 14.036 12.3078 16.5465C12.3078 19.0559 14.4084 21.0911 17.001 21.0911ZM21.2157 25.3023C20.1535 24.3156 19.481 22.9441 19.4318 21.4222C19.2853 21.4117 19.1403 21.4005 18.991 21.4005H15.009C11.6956 21.4005 9 24.0112 9 27.2199V31.9374L9.01238 32.0101L9.34783 32.1126C11.8845 32.8796 14.1484 33.2331 16.1148 33.3445V31.92C16.1156 28.7956 18.2697 26.1513 21.2157 25.3023Z" fill="white"/>
</svg>
