<svg width="200" height="78" viewBox="0 0 200 78" fill="none" xmlns="http://www.w3.org/2000/svg">
<path d="M21.125 48.125V27.5H14.25V20.625H7.375V0H21.125V20.625H34.875V0H48.625V20.625H41.75V27.5H34.875V48.125H21.125ZM62.375 48.125V41.25H55.5V20.625H62.375V13.75H96.75V20.625H103.625V34.375H69.25V41.25H96.75V48.125H62.375ZM69.25 27.5H89.875V20.625H69.25V27.5ZM110.5 55V13.75H151.75V20.625H158.625V34.375H151.75V41.25H124.25V55H110.5ZM124.25 34.375H144.875V20.625H124.25V34.375ZM179.25 48.125V34.375H193V48.125H179.25Z" fill="black"/>
<path d="M200 48H0V78H200V48Z" fill="black"/>
<path d="M70.2959 70.0723C70.2959 69.9909 70.2959 69.9176 70.2959 69.8525C70.3122 69.7874 70.3529 69.7223 70.418 69.6572C70.6133 69.4131 70.833 69.1608 71.0771 68.9004C71.3213 68.6237 71.5573 68.3551 71.7852 68.0947C72.013 67.818 72.2246 67.5332 72.4199 67.2402C72.6152 66.9473 72.778 66.6543 72.9082 66.3613V66.2148L69.71 66.874H69.3438C69.1159 66.874 68.8311 66.8577 68.4893 66.8252C68.1637 66.7926 67.8382 66.7275 67.5127 66.6299C67.2035 66.516 66.9349 66.3613 66.707 66.166C66.4954 65.9707 66.3896 65.7103 66.3896 65.3848C66.4059 65.0104 66.6012 64.5954 66.9756 64.1396C67.3499 63.6839 67.7894 63.2363 68.2939 62.7969C68.7985 62.3574 69.3031 61.9505 69.8076 61.5762C70.3285 61.2018 70.7435 60.9089 71.0527 60.6973C71.3945 60.502 71.8014 60.3473 72.2734 60.2334C72.7454 60.1032 73.1768 60.0381 73.5674 60.0381C73.8929 60.0381 74.1777 60.1032 74.4219 60.2334C74.666 60.3473 74.7881 60.5833 74.7881 60.9414C74.7881 61.0879 74.7718 61.2262 74.7393 61.3564C74.723 61.4867 74.6253 61.5762 74.4463 61.625C73.9255 61.5762 73.4372 61.6169 72.9814 61.7471C72.5257 61.861 72.0944 62.04 71.6875 62.2842C71.2806 62.5283 70.8981 62.8213 70.54 63.1631C70.182 63.4886 69.832 63.8304 69.4902 64.1885C69.3926 64.3024 69.2705 64.4652 69.124 64.6768C68.9775 64.8721 68.9043 64.986 68.9043 65.0186V65.043C69.3275 65.043 69.7425 65.0023 70.1494 64.9209C70.5726 64.8395 70.9876 64.7581 71.3945 64.6768C71.8177 64.5791 72.2327 64.4896 72.6396 64.4082C73.0628 64.3268 73.4941 64.2861 73.9336 64.2861C74.0964 64.2861 74.2754 64.3024 74.4707 64.335C74.666 64.3512 74.8451 64.4001 75.0078 64.4814C75.1868 64.5628 75.3252 64.6768 75.4229 64.8232C75.5368 64.9535 75.5938 65.1243 75.5938 65.3359C75.5938 65.6452 75.5124 65.9463 75.3496 66.2393C75.2031 66.516 74.9753 66.8577 74.666 67.2646C74.373 67.6553 73.9906 68.1354 73.5186 68.7051C73.0628 69.2747 72.5176 70.0072 71.8828 70.9023C71.8503 70.9512 71.7689 70.9837 71.6387 71C71.5247 71.0163 71.4271 71.0244 71.3457 71.0244C71.1178 71.0244 70.8818 70.9268 70.6377 70.7314C70.4098 70.5361 70.2959 70.3164 70.2959 70.0723ZM79.0117 63.8711C78.7839 63.8711 78.5804 63.9281 78.4014 64.042C78.2223 64.1559 78.0107 64.2129 77.7666 64.2129C77.734 64.2129 77.6445 64.2129 77.498 64.2129C77.3678 64.1966 77.2865 64.1885 77.2539 64.1885C77.1888 64.1071 77.1156 64.042 77.0342 63.9932C76.9528 63.9443 76.8714 63.8955 76.79 63.8467C76.7087 63.7816 76.6354 63.7083 76.5703 63.627C76.5215 63.5456 76.4971 63.4316 76.4971 63.2852C76.4971 63.041 76.5947 62.8457 76.79 62.6992C76.9854 62.5365 77.2132 62.3981 77.4736 62.2842C77.734 62.1702 77.9945 62.0645 78.2549 61.9668C78.5316 61.8691 78.7513 61.7552 78.9141 61.625V60.5508C78.9141 59.3464 78.8571 58.1419 78.7432 56.9375C78.6292 55.7168 78.5723 54.5124 78.5723 53.3242C78.5723 52.9987 78.6536 52.7871 78.8164 52.6895C78.9792 52.5918 79.1989 52.543 79.4756 52.543C79.8011 52.543 80.0371 52.6406 80.1836 52.8359C80.3464 53.015 80.4603 53.2428 80.5254 53.5195C80.5905 53.7799 80.623 54.0648 80.623 54.374C80.623 54.667 80.6312 54.9193 80.6475 55.1309C80.6475 55.3424 80.6637 55.7168 80.6963 56.2539C80.7288 56.791 80.7614 57.3607 80.7939 57.9629C80.8265 58.5651 80.859 59.1348 80.8916 59.6719C80.9242 60.209 80.9486 60.5833 80.9648 60.7949C81.0299 60.7786 81.152 60.738 81.3311 60.6729C81.5264 60.5915 81.7298 60.5182 81.9414 60.4531C82.153 60.3717 82.3483 60.2985 82.5273 60.2334C82.7227 60.1683 82.861 60.1195 82.9424 60.0869C83.3656 59.9079 83.805 59.7126 84.2607 59.501C84.7165 59.2731 85.1803 59.1592 85.6523 59.1592C85.9779 59.1592 86.222 59.2731 86.3848 59.501C86.5638 59.7126 86.6533 59.9648 86.6533 60.2578C86.6533 60.4694 86.5719 60.624 86.4092 60.7217C86.2464 60.8193 86.0755 60.9089 85.8965 60.9902L81.4531 62.6504C81.4043 62.6829 81.3555 62.7155 81.3066 62.748C81.2578 62.7643 81.209 62.7969 81.1602 62.8457V63.627C81.1602 64.1966 81.1683 64.7907 81.1846 65.4092C81.2171 66.0114 81.2741 66.5973 81.3555 67.167C81.4368 67.6553 81.5264 68.1354 81.624 68.6074C81.7217 69.0794 81.7705 69.5596 81.7705 70.0479C81.7705 70.1943 81.7217 70.3896 81.624 70.6338C81.5264 70.8779 81.3717 71 81.1602 71C80.7207 71 80.3626 70.8698 80.0859 70.6094C79.8092 70.349 79.6546 69.999 79.6221 69.5596C79.5407 68.7132 79.4512 67.7855 79.3535 66.7764C79.2721 65.7673 79.1908 64.7988 79.1094 63.8711H79.0117ZM92.2686 68.6807C92.1546 68.9248 92.0407 69.1934 91.9268 69.4863C91.8128 69.763 91.6826 70.0153 91.5361 70.2432C91.3896 70.471 91.2106 70.6663 90.999 70.8291C90.7874 70.9756 90.5189 71.0488 90.1934 71.0488C89.6237 71.0488 89.1517 70.9105 88.7773 70.6338C88.403 70.3408 88.0938 69.9827 87.8496 69.5596C87.6217 69.1201 87.459 68.6481 87.3613 68.1436C87.2637 67.639 87.2148 67.167 87.2148 66.7275L87.4102 60.8193C87.3939 60.7054 87.4183 60.5915 87.4834 60.4775C87.5648 60.3473 87.6624 60.2334 87.7764 60.1357C87.9066 60.0218 88.0449 59.9323 88.1914 59.8672C88.3542 59.8021 88.5007 59.7695 88.6309 59.7695C89.0052 59.7695 89.3226 59.8916 89.583 60.1357C89.8434 60.3636 89.9736 60.6647 89.9736 61.0391V61.2832C89.7946 61.5762 89.64 61.9587 89.5098 62.4307C89.3796 62.9027 89.2738 63.4154 89.1924 63.9688C89.1273 64.5059 89.0866 65.0592 89.0703 65.6289C89.054 66.1986 89.0703 66.7194 89.1191 67.1914C89.1842 67.6634 89.2819 68.0703 89.4121 68.4121C89.5423 68.7376 89.7132 68.9329 89.9248 68.998C90.0062 68.998 90.1283 68.9574 90.291 68.876C90.4701 68.7946 90.6572 68.64 90.8525 68.4121C91.0479 68.1842 91.2513 67.8669 91.4629 67.46C91.6745 67.0368 91.8617 66.4834 92.0244 65.7998C92.1872 65.1162 92.3092 64.2861 92.3906 63.3096C92.472 62.333 92.4964 61.1611 92.4639 59.7939C92.529 59.6149 92.6185 59.5173 92.7324 59.501C92.8626 59.4847 92.9928 59.4766 93.123 59.4766C93.2695 59.4766 93.3916 59.4847 93.4893 59.501C93.5869 59.501 93.6927 59.5579 93.8066 59.6719C93.888 59.7533 93.9775 59.8753 94.0752 60.0381C94.1729 60.2008 94.2217 60.2904 94.2217 60.3066L94.6367 71.1221C94.6367 71.3662 94.5716 71.5697 94.4414 71.7324C94.3112 71.8952 94.124 71.9766 93.8799 71.9766C93.7985 71.9766 93.7008 71.9684 93.5869 71.9521C93.473 71.9359 93.359 71.9033 93.2451 71.8545C93.1312 71.8057 93.0254 71.7406 92.9277 71.6592C92.8464 71.5941 92.7975 71.5127 92.7812 71.415L92.3662 68.9736L92.2686 68.6807ZM102.107 67.1426C102.091 67.1426 101.977 67.3216 101.766 67.6797C101.57 68.0378 101.302 68.4284 100.96 68.8516C100.618 69.2747 100.211 69.6654 99.739 70.0234C99.284 70.3815 98.7952 70.5605 98.2744 70.5605C97.5583 70.5605 96.9561 70.3408 96.4678 69.9014C95.9958 69.4619 95.7598 68.8597 95.7598 68.0947C95.7272 67.7041 95.776 67.2402 95.9062 66.7031C96.0527 66.166 96.2562 65.6126 96.5166 65.043C96.7933 64.457 97.1188 63.8955 97.4932 63.3584C97.8838 62.805 98.2988 62.333 98.7383 61.9424C99.178 61.5355 99.633 61.2344 100.105 61.0391C100.594 60.8438 101.082 60.8112 101.57 60.9414V60.5996C101.57 60.1764 101.554 59.7451 101.521 59.3057C101.505 58.8499 101.481 58.3372 101.448 57.7676C101.432 57.1816 101.408 56.5143 101.375 55.7656C101.359 55.0007 101.351 54.0892 101.351 53.0312C101.399 52.8522 101.481 52.7383 101.595 52.6895C101.725 52.6243 101.863 52.5918 102.01 52.5918C102.384 52.5918 102.677 52.7139 102.889 52.958C103.117 53.2021 103.255 53.5033 103.304 53.8613C103.271 54.4147 103.255 54.9844 103.255 55.5703C103.271 56.14 103.304 56.791 103.353 57.5234C103.401 58.2559 103.475 59.0859 103.572 60.0137C103.686 60.9414 103.825 62.04 103.987 63.3096C104.15 64.5628 104.345 66.0114 104.573 67.6553C104.801 69.2829 105.07 71.1709 105.379 73.3193V74.1494C105.379 74.2471 105.338 74.3203 105.257 74.3691C105.192 74.418 105.102 74.4505 104.988 74.4668C104.891 74.4993 104.785 74.5156 104.671 74.5156C104.573 74.5319 104.5 74.54 104.451 74.54C104.207 74.54 103.947 74.4668 103.67 74.3203C103.393 74.1901 103.23 74.0029 103.182 73.7588L102.278 67.2402C102.278 67.1914 102.254 67.167 102.205 67.167C102.173 67.1507 102.14 67.1426 102.107 67.1426ZM97.8105 67.6797C97.8105 67.7285 97.8024 67.818 97.7861 67.9482C97.7861 68.0622 97.7861 68.1842 97.7861 68.3145C97.8024 68.4447 97.8268 68.5586 97.8594 68.6562C97.8919 68.7539 97.957 68.8027 98.0547 68.8027C98.4616 68.819 98.8766 68.6644 99.3 68.3389C99.739 68.0133 100.138 67.6146 100.496 67.1426C100.854 66.6543 101.147 66.1335 101.375 65.5801C101.619 65.0267 101.749 64.5303 101.766 64.0908C101.798 63.6514 101.692 63.3177 101.448 63.0898C101.22 62.8457 100.822 62.7887 100.252 62.9189C99.552 63.5374 98.9661 64.2454 98.4941 65.043C98.0384 65.8405 97.8105 66.7194 97.8105 67.6797ZM107.186 70.0723C107.023 68.4447 106.884 67.0531 106.771 65.8975C106.657 64.7419 106.559 63.7734 106.478 62.9922C106.396 62.2109 106.323 61.5924 106.258 61.1367C106.209 60.6647 106.168 60.3148 106.136 60.0869C106.103 59.8428 106.079 59.68 106.062 59.5986C106.046 59.5173 106.038 59.4684 106.038 59.4521V59.3545C106.038 59.1755 106.111 59.029 106.258 58.915C106.421 58.7848 106.583 58.7197 106.746 58.7197C106.99 58.7197 107.251 58.7604 107.527 58.8418C107.82 58.9232 108.016 59.0941 108.113 59.3545C108.26 60.152 108.357 60.9577 108.406 61.7715C108.471 62.5853 108.52 63.3991 108.553 64.2129C108.602 65.0104 108.659 65.8161 108.724 66.6299C108.805 67.4437 108.943 68.2493 109.139 69.0469C109.139 69.0794 109.147 69.1445 109.163 69.2422C109.196 69.3398 109.22 69.4456 109.236 69.5596C109.269 69.6735 109.293 69.7793 109.31 69.877C109.326 69.9746 109.334 70.0397 109.334 70.0723V70.1211C109.334 70.1374 109.342 70.1536 109.358 70.1699C109.358 70.3652 109.269 70.5605 109.09 70.7559C108.911 70.9512 108.724 71.0326 108.528 71C108.479 70.9837 108.357 70.9593 108.162 70.9268C107.983 70.8779 107.861 70.8372 107.796 70.8047C107.747 70.7884 107.682 70.7559 107.601 70.707C107.519 70.6419 107.438 70.5768 107.356 70.5117C107.291 70.4466 107.234 70.3734 107.186 70.292C107.137 70.2106 107.137 70.1374 107.186 70.0723ZM105.818 52.2744C105.818 52.1605 105.908 52.0628 106.087 51.9814C106.282 51.8838 106.429 51.835 106.526 51.835C106.771 51.835 107.039 51.9082 107.332 52.0547C107.641 52.1849 107.796 52.3883 107.796 52.665C107.796 52.9417 107.755 53.1289 107.674 53.2266C107.609 53.3242 107.438 53.373 107.161 53.373C106.868 53.373 106.567 53.2754 106.258 53.0801C105.965 52.8848 105.818 52.6162 105.818 52.2744ZM110.335 67.2646L111.238 60.9902C111.271 60.7786 111.36 60.624 111.507 60.5264C111.67 60.4287 111.849 60.3799 112.044 60.3799C112.402 60.3799 112.687 60.4857 112.898 60.6973C113.11 60.8926 113.289 61.1367 113.436 61.4297H113.46C113.655 61.4297 113.826 61.3971 113.973 61.332C114.135 61.2507 114.331 61.21 114.559 61.21C115.079 61.21 115.519 61.3727 115.877 61.6982C116.251 62.0238 116.552 62.4225 116.78 62.8945C117.008 63.3503 117.171 63.8467 117.269 64.3838C117.382 64.9209 117.439 65.3929 117.439 65.7998C117.439 66.2881 117.309 66.8333 117.049 67.4355C116.805 68.0378 116.471 68.6074 116.048 69.1445C115.641 69.6816 115.177 70.1292 114.656 70.4873C114.135 70.8454 113.606 71.0244 113.069 71.0244C112.581 71.0244 112.158 70.9105 111.8 70.6826C111.458 70.4548 111.173 70.1699 110.945 69.8281C110.734 69.4701 110.579 69.0713 110.481 68.6318C110.384 68.1924 110.335 67.7611 110.335 67.3379V67.2646ZM112.386 67.4111C112.418 67.5739 112.451 67.7611 112.483 67.9727C112.516 68.1842 112.565 68.3796 112.63 68.5586C112.695 68.7214 112.785 68.8516 112.898 68.9492C113.029 69.0306 113.208 69.0306 113.436 68.9492C113.647 68.7539 113.875 68.5342 114.119 68.29C114.363 68.0459 114.591 67.7855 114.803 67.5088C115.031 67.2321 115.218 66.9391 115.364 66.6299C115.511 66.3206 115.584 65.9951 115.584 65.6533C115.649 65.0999 115.608 64.5954 115.462 64.1396C115.315 63.6676 115.104 63.334 114.827 63.1387C114.567 62.9271 114.266 62.9027 113.924 63.0654C113.582 63.2119 113.24 63.627 112.898 64.3105C112.703 64.7337 112.565 65.2301 112.483 65.7998C112.418 66.3532 112.386 66.8659 112.386 67.3379V67.4111Z" fill="white"/>
<path d="M141 55H135V61H141V55Z" fill="#FFEB3B"/>
<path d="M147 61H141V67H147V61Z" fill="#E91E63"/>
<path d="M141 67H135V73H141V67Z" fill="#4CAF50"/>
<path d="M135 61H129V67H135V61Z" fill="#2196F3"/>
</svg>
